<?xml version="1.0" standalone="no"?>
<!DOCTYPE svg PUBLIC "-//W3C//DTD SVG 20010904//EN"
 "http://www.w3.org/TR/2001/REC-SVG-20010904/DTD/svg10.dtd">
<svg version="1.0" xmlns="http://www.w3.org/2000/svg"
 width="225.000000pt" height="225.000000pt" viewBox="0 0 225.000000 225.000000"
 preserveAspectRatio="xMidYMid meet">

<g transform="translate(0.000000,225.000000) scale(0.100000,-0.100000)"
fill="#000000" stroke="none">
<path d="M1348 2131 c84 -21 106 -35 45 -29 -23 2 -39 0 -37 -3 2 -4 -3 -12
-11 -19 -20 -17 -19 -30 3 -31 18 -1 12 -4 -45 -24 -13 -4 -23 -14 -23 -21 0
-8 -7 -17 -15 -20 -11 -5 -12 -11 -4 -25 5 -11 8 -37 6 -57 l-4 -37 -1 42 c-2
31 -7 43 -21 48 -10 3 -26 14 -35 24 -16 18 -16 21 -1 53 10 18 28 48 42 66
13 17 20 32 16 32 -10 0 -46 -54 -70 -104 l-18 -38 25 -19 c14 -10 31 -24 38
-29 8 -7 12 -39 12 -93 0 -115 -8 -155 -32 -163 -17 -5 -19 -12 -14 -46 11
-66 -3 -72 -94 -38 -125 46 -284 132 -371 201 -47 37 -60 38 -17 1 79 -68 353
-222 394 -222 7 0 16 -5 20 -11 4 -8 -1 -9 -17 -4 -19 5 -21 4 -9 -4 8 -6 24
-11 35 -12 17 -1 16 -2 -5 -9 -23 -7 -23 -8 -3 -9 16 -1 20 -6 16 -22 -4 -14
1 -25 16 -35 12 -9 19 -20 16 -25 -4 -5 1 -9 10 -9 9 0 13 -5 10 -10 -4 -7
-14 -5 -28 5 -12 8 -32 15 -45 15 -13 0 -20 4 -17 10 4 6 -1 7 -11 3 -14 -5
-16 -3 -11 11 4 9 3 15 -2 11 -14 -8 -57 11 -99 43 -20 16 -62 47 -92 70 -30
23 -86 71 -124 107 -38 36 -73 65 -77 65 -10 0 9 -67 33 -113 11 -22 17 -41
14 -44 -2 -3 -16 17 -30 44 -14 26 -25 44 -26 40 0 -11 38 -86 61 -118 10 -15
33 -34 51 -42 26 -12 38 -29 56 -75 12 -32 39 -78 59 -102 25 -28 37 -53 37
-74 1 -30 3 -31 45 -31 l44 0 13 -62 c7 -35 16 -67 19 -73 12 -19 39 -10 75
24 l35 35 35 -31 c31 -29 33 -32 16 -42 -45 -27 -96 -67 -96 -76 0 -5 13 -25
30 -43 29 -34 30 -35 16 -78 -27 -87 -46 -114 -61 -88 -4 6 -12 8 -19 6 -7 -3
-35 38 -69 102 -32 58 -67 117 -78 131 -11 14 2 -18 30 -70 38 -74 91 -210 91
-236 0 -2 -8 -1 -17 3 -14 5 -13 2 4 -13 l21 -19 -29 -70 c-36 -88 -77 -145
-120 -168 -58 -30 7 -8 116 39 107 47 175 94 175 122 0 12 9 6 27 -17 14 -18
41 -40 60 -47 18 -8 33 -19 33 -24 0 -10 -27 -3 -47 13 -23 17 -14 -5 11 -28
20 -19 23 -29 19 -76 -7 -93 -24 -151 -65 -228 -22 -42 -31 -68 -22 -60 30 25
84 154 91 219 3 33 8 58 11 55 11 -11 29 -166 19 -172 -5 -3 -7 -18 -5 -34 3
-15 0 -25 -4 -22 -5 3 -12 -4 -15 -16 -3 -12 -9 -21 -14 -21 -5 0 -9 -5 -9
-11 0 -19 105 -5 195 26 95 31 206 91 212 114 3 9 18 27 35 40 27 21 33 23 51
11 60 -37 207 -52 243 -25 16 13 16 14 2 9 -12 -4 -18 -1 -18 7 0 8 -3 25 -7
38 -5 18 -3 22 6 16 10 -5 11 -2 7 13 -4 12 -9 106 -11 209 -2 103 -4 191 -5
195 0 5 -55 35 -122 69 -135 67 -227 120 -272 157 -17 13 -40 28 -52 32 -16 7
-21 15 -17 29 6 25 11 25 37 6 26 -20 72 -19 80 1 3 9 6 33 6 55 0 21 1 39 3
39 1 0 20 -9 42 -20 22 -11 45 -20 52 -20 22 0 26 27 10 60 -16 30 -15 31 11
37 58 12 201 205 241 326 21 60 30 207 14 207 -5 0 -18 -17 -29 -38 -40 -69
-115 -151 -157 -171 -45 -21 -138 -45 -224 -56 l-52 -7 -9 34 c-5 18 -7 47 -5
64 4 25 0 32 -20 41 -20 9 -27 23 -34 65 -5 29 -8 55 -6 57 1 2 17 -11 35 -29
34 -33 144 -110 159 -110 28 0 75 157 85 288 l7 83 30 -3 c49 -5 55 -28 24
-88 -15 -29 -21 -50 -14 -48 21 7 77 88 77 112 0 41 -68 86 -130 86 -55 0 -60
-6 -61 -84 0 -77 -28 -201 -44 -201 -18 1 -145 217 -145 247 0 25 -7 32 -47
49 -53 23 -164 49 -203 48 -14 0 8 -9 48 -18z m-81 -393 c-3 -8 -6 -5 -6 6 -1
11 2 17 5 13 3 -3 4 -12 1 -19z m-345 -179 c46 -34 85 -64 88 -66 2 -2 -2 -9
-10 -14 -11 -8 -8 -9 10 -4 21 6 18 1 -17 -30 -47 -40 -54 -62 -24 -67 18 -3
18 -5 5 -22 -14 -19 -14 -19 -40 4 -14 14 -42 58 -62 99 -20 42 -50 89 -65
106 -29 31 -53 72 -81 139 l-16 38 64 -60 c36 -33 102 -88 148 -123z m538 143
c40 -40 61 -93 53 -136 -10 -50 -28 -28 -28 35 0 56 -3 63 -33 90 -37 33 -85
38 -131 14 -34 -17 -42 -33 -51 -100 l-7 -50 -2 52 c-1 42 4 57 26 83 53 63
118 68 173 12z m-10 -27 c10 -12 11 -21 3 -33 -7 -13 -5 -23 9 -42 23 -32 15
-64 -15 -56 -12 3 -26 1 -32 -4 -6 -5 -27 -5 -50 0 -22 5 -48 7 -57 4 -22 -6
-36 39 -19 60 7 8 9 25 6 38 -9 35 25 64 55 48 18 -10 25 -9 38 4 17 16 38 10
62 -19z m-202 -25 c-5 -17 -8 -44 -6 -61 4 -23 1 -29 -9 -24 -8 3 -16 5 -17 5
-1 0 0 57 3 103 1 4 10 7 20 7 18 0 19 -3 9 -30z m298 20 c28 -10 29 -14 31
-68 1 -53 -1 -57 -22 -57 -13 0 -21 4 -17 9 10 17 3 79 -13 102 -18 27 -18 27
21 14z m-775 -82 c11 -21 11 -22 -4 -9 -10 7 -17 17 -17 22 0 15 9 10 21 -13z
m357 -213 c2 -2 1 -9 -3 -15 -5 -8 -11 -8 -21 1 -7 6 -21 9 -29 5 -16 -6 -20
5 -8 18 7 6 53 0 61 -9z m-10 -67 c-5 -14 -23 -10 -23 5 0 6 -6 16 -13 20 -7
5 -9 13 -6 19 8 13 47 -29 42 -44z m622 -3 c0 -14 -29 -56 -50 -72 -15 -12
-47 -8 -64 8 -5 4 4 6 21 4 24 -3 33 2 46 25 18 30 24 56 7 30 -6 -9 -10 -10
-10 -3 0 6 -3 18 -6 27 -5 13 -1 13 25 3 17 -6 31 -16 31 -22z m-634 -40 c15
-30 15 -30 -16 5 -16 19 -30 41 -30 50 1 18 24 -9 46 -55z m312 24 c18 -6 30
-14 27 -19 -2 -4 7 -5 20 -2 20 3 24 1 19 -12 -3 -9 -1 -16 5 -16 28 0 7 -30
-26 -39 -82 -23 -223 -4 -223 30 0 8 -4 8 -15 -1 -8 -7 -15 -18 -15 -24 0 -6
5 -4 10 4 8 12 19 6 62 -35 29 -28 42 -38 29 -23 l-23 27 53 -5 c34 -3 72 0
102 9 26 8 47 11 47 6 0 -5 -5 -9 -11 -9 -5 0 -7 -4 -4 -10 12 -20 23 -9 29
29 4 29 12 40 28 45 37 10 55 7 75 -11 10 -10 14 -15 9 -10 -15 11 -26 9 -26
-6 0 -7 -17 -29 -37 -48 -26 -23 -32 -26 -18 -8 13 16 10 15 -10 -6 -40 -41
-83 -67 -97 -59 -7 4 -8 3 -4 -4 5 -8 -2 -12 -21 -12 -22 0 -25 2 -13 10 11 7
3 10 -30 10 -48 0 -87 19 -132 65 -32 32 -34 46 -12 80 l16 25 18 -22 c14 -17
21 -20 31 -11 11 9 19 8 33 -3 11 -8 24 -14 30 -14 6 0 0 7 -12 16 -39 27 -27
37 39 31 64 -6 68 5 9 21 -22 7 -27 11 -14 11 12 1 35 -4 52 -10z m-288 -9 c0
-5 -4 -10 -10 -10 -5 0 -10 5 -10 10 0 6 5 10 10 10 6 0 10 -4 10 -10z m91
-260 c42 0 47 -19 6 -21 -17 -1 -18 -2 -4 -6 9 -2 17 -11 17 -19 0 -8 5 -14
10 -14 6 0 10 -4 10 -10 0 -19 -19 -9 -67 36 -26 25 -40 43 -30 40 10 -3 37
-6 58 -6z m97 -19 c0 -16 8 -44 17 -61 18 -34 14 -50 -8 -31 -21 17 -50 88
-44 105 11 27 34 18 35 -13z m-44 -27 c9 -24 7 -27 -9 -10 -17 17 -19 26 -6
26 5 0 12 -7 15 -16z m333 -44 c2 -2 9 2 14 10 9 13 10 13 6 -1 -6 -17 10 -39
26 -39 5 0 3 8 -4 18 -11 14 -10 14 8 -2 13 -10 20 -23 16 -29 -4 -6 0 -8 11
-4 10 4 15 3 11 -3 -3 -6 -1 -10 5 -10 6 0 8 -5 5 -10 -3 -6 2 -13 11 -17 20
-8 57 -43 47 -44 -5 0 1 -4 11 -8 11 -4 15 -10 10 -13 -5 -4 -29 11 -53 33
-23 22 -69 60 -102 86 -32 25 -59 49 -59 53 0 17 15 19 23 3 6 -10 12 -20 14
-23z m66 -86 c48 -42 87 -83 87 -92 0 -11 -17 0 -49 32 l-50 49 -60 -49 c-34
-27 -61 -53 -61 -59 0 -5 9 -30 20 -54 11 -24 20 -49 20 -56 0 -10 22 -14 76
-17 l75 -3 16 58 c16 57 33 76 33 36 0 -64 -79 -169 -127 -169 -10 0 -25 -5
-33 -10 -11 -7 -6 -8 17 -4 27 5 33 2 46 -22 8 -16 34 -44 57 -63 l43 -34 -27
-24 c-29 -25 -46 -29 -46 -13 0 6 -10 8 -24 4 -16 -4 -25 -1 -29 10 -4 9 -17
16 -31 16 -26 0 -39 19 -26 41 10 15 -7 42 -22 33 -18 -11 -58 25 -58 53 0 25
1 25 18 10 25 -23 30 -21 24 8 -4 22 -9 25 -49 25 -43 0 -44 1 -68 53 -31 66
-31 81 1 106 24 19 26 25 20 66 -4 25 -4 54 -1 65 7 23 82 80 104 80 9 0 55
-35 104 -76z m-398 4 l38 -41 -29 -24 c-16 -12 -24 -23 -17 -23 6 0 11 -13 11
-30 -1 -17 7 -39 16 -49 11 -12 14 -21 7 -26 -6 -3 -11 -12 -10 -18 0 -9 2 -9
6 1 2 6 9 12 15 12 6 0 7 -8 4 -17 -6 -14 -3 -14 15 3 l22 19 -13 -25 -13 -25
23 20 23 20 -17 -26 c-12 -19 -23 -25 -37 -22 -28 8 -86 78 -93 115 -9 46 -7
178 3 178 5 0 26 -19 46 -42z m522 -118 c0 -24 -3 -27 -14 -19 -16 14 -17 36
0 42 6 3 12 6 13 6 0 1 1 -12 1 -29z m15 -52 c-13 -13 -17 -32 -4 -25 4 3 6
-16 6 -41 -1 -40 -5 -48 -25 -53 -47 -13 -49 -10 -25 44 12 28 26 60 29 70 4
9 12 17 19 17 9 0 9 -3 0 -12z m-399 -80 c15 -7 27 -19 27 -27 0 -11 -3 -11
-17 0 -10 8 -21 19 -25 24 -4 6 -8 -4 -8 -20 0 -17 6 -37 13 -44 10 -11 8 -12
-11 -6 -20 6 -22 4 -17 -18 10 -38 -9 -40 -21 -2 -8 26 -8 32 2 28 10 -4 12 6
8 36 -5 45 3 50 49 29z m41 -152 c9 -43 14 -82 11 -84 -6 -6 -10 8 -30 101 -9
42 -21 77 -26 77 -5 0 -9 8 -9 18 1 42 39 -36 54 -112z m-424 90 c0 -2 -7 -7
-16 -10 -8 -3 -12 -2 -9 4 6 10 25 14 25 6z m750 -9 c30 1 31 0 10 -6 -22 -6
-17 -11 58 -54 78 -45 114 -74 52 -42 -34 18 -40 18 -40 5 0 -5 8 -10 18 -11
12 0 10 -3 -7 -10 -19 -8 -29 -5 -47 12 -13 12 -32 27 -43 33 -10 6 -34 21
-53 34 l-33 24 35 -32 c19 -17 61 -51 93 -76 33 -24 56 -44 53 -44 -17 0 -109
53 -141 81 -52 46 -62 69 -39 86 10 7 25 10 34 7 8 -4 31 -7 50 -7z m-373 -34
c-4 -3 -2 -12 4 -19 6 -7 12 -32 14 -56 2 -24 5 -50 8 -58 2 -8 2 -12 0 -7 -3
4 -8 5 -13 2 -4 -3 -10 11 -12 29 -2 19 0 32 4 30 14 -9 9 7 -7 22 -18 18 -20
64 -3 64 6 0 8 -3 5 -7z m-30 -65 c-3 -7 -5 -2 -5 12 0 14 2 19 5 13 2 -7 2
-19 0 -25z m223 8 c0 -3 -4 -8 -10 -11 -5 -3 -10 -1 -10 4 0 6 5 11 10 11 6 0
10 -2 10 -4z m-210 -48 c0 -16 -3 -19 -11 -11 -6 6 -8 16 -5 22 11 17 16 13
16 -11z m10 -42 c0 -8 -4 -18 -10 -21 -5 -3 -10 3 -10 14 0 12 5 21 10 21 6 0
10 -6 10 -14z m77 -11 c9 -25 -4 -29 -17 -6 -7 15 -7 21 0 21 6 0 13 -7 17
-15z m-67 -46 c0 -5 -4 -9 -10 -9 -5 0 -10 7 -10 16 0 8 5 12 10 9 6 -3 10
-10 10 -16z m67 -11 c-3 -8 -6 -5 -6 6 -1 11 2 17 5 13 3 -3 4 -12 1 -19z
m-77 -23 c20 -24 6 -28 -15 -5 -10 11 -13 20 -8 20 6 0 16 -7 23 -15z m110 5
c0 -5 -4 -10 -10 -10 -5 0 -10 5 -10 10 0 6 5 10 10 10 6 0 10 -4 10 -10z"/>
<path d="M1356 1631 c-23 -26 -10 -53 23 -49 32 4 40 38 12 55 -15 10 -22 9
-35 -6z"/>
<path d="M1348 1253 c12 -2 22 -11 22 -19 0 -15 35 -20 44 -5 7 10 -48 32 -73
30 -9 -1 -6 -4 7 -6z"/>
<path d="M1398 1153 c7 -3 16 -2 19 1 4 3 -2 6 -13 5 -11 0 -14 -3 -6 -6z"/>
<path d="M1428 1133 c7 -3 16 -2 19 1 4 3 -2 6 -13 5 -11 0 -14 -3 -6 -6z"/>
<path d="M1353 1123 c9 -2 25 -2 35 0 9 3 1 5 -18 5 -19 0 -27 -2 -17 -5z"/>
<path d="M1243 727 c4 -10 7 -26 7 -35 1 -15 2 -15 11 1 8 13 6 22 -7 35 -17
16 -18 16 -11 -1z"/>
<path d="M1266 675 c-9 -26 -7 -32 5 -12 6 10 9 21 6 23 -2 3 -7 -2 -11 -11z"/>
<path d="M662 1810 c0 -24 25 -115 27 -95 0 6 -6 35 -14 65 -7 30 -13 44 -13
30z"/>
<path d="M636 1184 c-9 -8 -16 -31 -16 -50 0 -22 -6 -37 -15 -40 -8 -4 -15
-13 -15 -21 0 -11 6 -8 20 8 l19 24 1 -42 c0 -48 -2 -50 -24 -28 -13 14 -14
11 -9 -20 4 -28 2 -39 -13 -50 -15 -11 -17 -16 -6 -26 6 -7 12 -19 12 -26 0
-14 -58 -48 -67 -39 -3 3 0 33 6 68 6 35 10 79 8 98 -2 30 1 35 21 38 12 2 20
7 17 12 -8 13 -44 0 -49 -19 -2 -9 -6 -59 -8 -111 l-3 -95 25 3 c14 1 35 13
47 27 21 24 43 33 43 18 0 -4 -41 -61 -92 -127 -51 -67 -85 -115 -75 -107 9 7
17 10 17 6 0 -4 7 -2 15 5 9 7 14 19 11 27 -3 8 -2 12 3 9 5 -3 44 37 86 90
75 93 77 95 92 74 8 -12 21 -19 28 -16 8 3 15 -7 19 -27 4 -18 33 -86 66 -152
54 -108 71 -127 34 -38 -8 18 -14 36 -13 39 0 4 -3 10 -8 13 -14 10 -63 133
-57 142 9 15 44 10 44 -7 0 -8 20 -48 44 -87 53 -89 86 -162 86 -194 0 -13 -8
-36 -17 -51 -16 -25 -16 -26 -1 -14 51 41 115 221 105 296 -7 47 -68 174 -130
267 l-43 67 30 -9 c17 -5 38 -9 46 -8 8 0 -7 7 -35 14 -35 10 -51 11 -56 3 -4
-6 -12 -7 -18 -4 -6 4 -11 5 -11 2 0 -3 13 -12 29 -20 16 -9 42 -40 61 -72 30
-53 30 -57 14 -75 -13 -14 -31 -19 -74 -19 -50 0 -62 -4 -90 -30 -18 -16 -36
-27 -41 -24 -12 7 -11 61 1 85 12 22 60 49 88 49 11 0 26 8 33 18 11 14 11 15
-1 5 -22 -20 -35 -15 -16 6 14 15 15 24 6 40 -15 29 -44 26 -69 -6 l-20 -28
-1 42 c0 23 -5 45 -11 49 -7 4 -9 -10 -4 -47 8 -62 -4 -101 -43 -141 -24 -26
-60 -36 -75 -22 -4 4 7 23 24 42 30 34 31 38 28 116 l-4 81 35 12 c32 11 33
12 8 12 -15 1 -34 -6 -42 -15z m133 -133 c10 -6 5 -13 -20 -25 -39 -19 -44
-17 -23 12 17 24 22 26 43 13z m137 -136 c-27 -45 -39 -52 -65 -36 -12 8 -12
12 0 27 8 11 23 21 34 22 11 2 26 13 33 24 26 37 24 9 -2 -37z m-235 12 c-8
-8 -11 -7 -11 4 0 20 13 34 18 19 3 -7 -1 -17 -7 -23z m298 -40 c14 -28 27
-56 29 -61 4 -7 -48 27 -81 54 -8 7 12 60 22 60 3 0 17 -24 30 -53z m-135 31
c-18 -32 -39 -48 -64 -48 -38 0 -43 10 -18 37 24 25 96 35 82 11z m-238 -87
c-31 -39 -59 -71 -61 -71 -3 0 21 34 52 75 31 41 59 73 61 70 2 -2 -21 -35
-52 -74z"/>
<path d="M930 896 c0 -2 8 -10 18 -17 15 -13 16 -12 3 4 -13 16 -21 21 -21 13z"/>
<path d="M736 1168 c50 -37 60 -41 24 -9 -19 17 -38 31 -43 31 -6 0 3 -10 19
-22z"/>
<path d="M434 649 c-8 -14 14 -19 25 -6 8 10 7 14 -5 14 -8 0 -17 -4 -20 -8z"/>
<path d="M861 554 c0 -11 3 -14 6 -6 3 7 2 16 -1 19 -3 4 -6 -2 -5 -13z"/>
<path d="M334 518 c3 -10 9 -25 12 -33 5 -11 -2 -15 -27 -16 -32 -2 -33 -2 -5
-6 40 -6 51 9 31 43 -9 16 -14 21 -11 12z"/>
<path d="M861 483 c-1 -34 5 -39 26 -25 8 5 9 13 3 22 -6 8 -10 11 -11 5 0 -5
-4 -1 -9 10 -7 17 -9 15 -9 -12z"/>
<path d="M2050 391 c0 -6 4 -13 10 -16 6 -3 7 1 4 9 -7 18 -14 21 -14 7z"/>
</g>
</svg>
